<svg id="Layer_1" data-name="Layer 1" xmlns="http://www.w3.org/2000/svg" xmlns:xlink="http://www.w3.org/1999/xlink" viewBox="0 0 665.36 352.18"><defs><style>.cls-1,.cls-10,.cls-3,.cls-5,.cls-6,.cls-7,.cls-9{fill:none;}.cls-2{clip-path:url(#clip-path);}.cls-3,.cls-5{stroke:#ffc807;}.cls-3{stroke-width:4px;}.cls-4{fill:#ffc807;}.cls-5{stroke-width:1.1px;}.cls-10,.cls-6,.cls-7,.cls-9{stroke:#d9dbdc;}.cls-6{stroke-width:3px;}.cls-7{stroke-width:3.01px;}.cls-12,.cls-8{fill:#d9dbdc;}.cls-9{stroke-width:1.04px;}.cls-10{stroke-width:1.04px;}.cls-11,.cls-12{font-size:12px;font-family:RobotoSlab-Regular, Roboto Slab;}.cls-11{fill:#ffc907;}.cls-13{letter-spacing:-0.01em;}</style><clipPath id="clip-path" transform="translate(-3 -3.82)"><rect class="cls-1" x="3" y="3.82" width="712.85" height="352.18"/></clipPath></defs><title>A2+A3_REV</title><g class="cls-2"><line class="cls-3" x1="0.49" y1="347.53" x2="175.45" y2="303.44"/></g><line class="cls-3" x1="174.85" y1="302.83" x2="233.31" y2="270.27"/><line class="cls-3" x1="230.55" y1="270.28" x2="329.04" y2="259.05"/><line class="cls-3" x1="327.97" y1="262.74" x2="384.32" y2="176.08"/><line class="cls-3" x1="384.72" y1="176.28" x2="510.97" y2="152.15"/><line class="cls-3" x1="515.3" y1="151.94" x2="656.45" y2="7.9"/><g class="cls-2"><path class="cls-4" d="M387.86,185.36a5.94,5.94,0,1,0-5.94-5.94,5.94,5.94,0,0,0,5.94,5.94" transform="translate(-3 -3.82)"/><circle class="cls-5" cx="387.86" cy="179.42" r="5.94" transform="translate(-29.93 72.77) rotate(-10.9)"/><path class="cls-4" d="M516.66,160.32a5.94,5.94,0,1,0-5.93-5.93,5.93,5.93,0,0,0,5.93,5.93" transform="translate(-3 -3.82)"/><circle class="cls-5" cx="516.66" cy="154.39" r="5.94" transform="translate(-22.87 96.67) rotate(-10.9)"/><path class="cls-4" d="M661.87,16.24a5.94,5.94,0,1,0-5.93-5.94,5.94,5.94,0,0,0,5.93,5.94" transform="translate(-3 -3.82)"/><circle class="cls-5" cx="661.87" cy="10.3" r="5.94" transform="translate(90.43 345.69) rotate(-31.72)"/><path class="cls-4" d="M332.1,268.21a5.94,5.94,0,1,0-5.93-5.93,5.93,5.93,0,0,0,5.93,5.93" transform="translate(-3 -3.82)"/><circle class="cls-5" cx="332.1" cy="262.28" r="5.94" transform="translate(-54.38 79.5) rotate(-13.28)"/><path class="cls-4" d="M234.26,281.19a5.94,5.94,0,1,0-5.93-5.94,5.94,5.94,0,0,0,5.93,5.94" transform="translate(-3 -3.82)"/><circle class="cls-5" cx="231.26" cy="271.44" r="5.94"/><path class="cls-4" d="M178.06,312.62a5.94,5.94,0,1,0-5.94-5.93,5.94,5.94,0,0,0,5.94,5.93" transform="translate(-3 -3.82)"/><circle class="cls-5" cx="178.06" cy="306.69" r="5.94" transform="translate(-75.75 52.16) rotate(-14.87)"/><line class="cls-6" x1="0.55" y1="350.71" x2="272.72" y2="304.7"/></g><line class="cls-6" x1="272.21" y1="304.13" x2="378.51" y2="262.69"/><line class="cls-6" x1="380.81" y1="262.67" x2="487.5" y2="251.58"/><line class="cls-7" x1="487.34" y1="251.48" x2="563.74" y2="203.94"/><g class="cls-2"><line class="cls-7" x1="566.6" y1="203.94" x2="660.5" y2="171.68"/><path class="cls-8" d="M381.67,272.41a5.54,5.54,0,1,0-5.54-5.54,5.53,5.53,0,0,0,5.54,5.54" transform="translate(-3 -3.82)"/><circle class="cls-9" cx="381.67" cy="266.87" r="5.54" transform="translate(-66.57 399.65) rotate(-52.02)"/><path class="cls-8" d="M490.11,260.5a5.54,5.54,0,1,0-5.54-5.54,5.53,5.53,0,0,0,5.54,5.54" transform="translate(-3 -3.82)"/><circle class="cls-9" cx="490.11" cy="254.96" r="5.54" transform="translate(-15.48 480.54) rotate(-52.02)"/><path class="cls-8" d="M567,212.92a5.54,5.54,0,1,0-5.53-5.53,5.54,5.54,0,0,0,5.53,5.53" transform="translate(-3 -3.82)"/><circle class="cls-9" cx="566.97" cy="207.39" r="5.54" transform="translate(-39.2 228.94) rotate(-22.5)"/><path class="cls-8" d="M661.79,181.45a5.65,5.65,0,1,0-5.65-5.65,5.65,5.65,0,0,0,5.65,5.65" transform="translate(-3 -3.82)"/><path class="cls-10" d="M716,156.8" transform="translate(-3 -3.82)"/><path class="cls-10" d="M710.44,162.34" transform="translate(-3 -3.82)"/><path class="cls-8" d="M278,314.4a5.54,5.54,0,1,0-5.54-5.54A5.54,5.54,0,0,0,278,314.4" transform="translate(-3 -3.82)"/><circle class="cls-9" cx="278.01" cy="308.86" r="5.54" transform="translate(-140.52 309.05) rotate(-48.56)"/></g><text class="cls-11" transform="translate(573 107.98)">Our Clients</text><text class="cls-12" transform="translate(573 227.94)"><tspan class="cls-13">P</tspan><tspan x="7.55" y="0">eer Companies</tspan></text></svg>