<?xml version="1.0" encoding="utf-8"?>
<!-- Generator: Adobe Illustrator 22.1.0, SVG Export Plug-In . SVG Version: 6.00 Build 0)  -->
<svg version="1.1" id="Layer_1" xmlns="http://www.w3.org/2000/svg" xmlns:xlink="http://www.w3.org/1999/xlink" x="0px" y="0px"
	 viewBox="0 0 1441 720" style="enable-background:new 0 0 1441 720;" xml:space="preserve">
<style type="text/css">
	.st0{clip-path:url(#SVGID_2_);fill:none;stroke:#FFC807;stroke-width:7.9958;}
	.st1{fill:none;stroke:#FFC807;stroke-width:7.9958;}
	.st2{clip-path:url(#SVGID_4_);fill:#FFC807;}
	.st3{clip-path:url(#SVGID_4_);fill:none;stroke:#FFC807;stroke-width:2.2068;}
	.st4{clip-path:url(#SVGID_4_);fill:none;stroke:#D9DBDC;stroke-width:5.9969;}
	.st5{fill:none;stroke:#D9DBDC;stroke-width:5.9969;}
	.st6{clip-path:url(#SVGID_6_);fill:none;stroke:#D9DBDC;stroke-width:5.9969;}
	.st7{clip-path:url(#SVGID_6_);fill:#D9DBDC;}
	.st8{clip-path:url(#SVGID_6_);fill:none;stroke:#D9DBDC;stroke-width:2.0809;}
</style>
<g>
	<defs>
		<rect id="SVGID_1_" x="5.9" y="9.9" width="1424.9" height="704"/>
	</defs>
	<clipPath id="SVGID_2_">
		<use xlink:href="#SVGID_1_"  style="overflow:visible;"/>
	</clipPath>
	<line class="st0" x1="6.9" y1="704.6" x2="356.7" y2="616.5"/>
</g>
<line class="st1" x1="355.5" y1="615.2" x2="472.3" y2="550.2"/>
<line class="st1" x1="466.8" y1="550.2" x2="663.7" y2="527.7"/>
<line class="st1" x1="661.5" y1="535.1" x2="774.2" y2="361.9"/>
<line class="st1" x1="775" y1="362.3" x2="1027.4" y2="314"/>
<line class="st1" x1="1036" y1="313.6" x2="1318.2" y2="25.7"/>
<g>
	<defs>
		<rect id="SVGID_3_" x="5.9" y="9.9" width="1424.9" height="704"/>
	</defs>
	<clipPath id="SVGID_4_">
		<use xlink:href="#SVGID_3_"  style="overflow:visible;"/>
	</clipPath>
	<path class="st2" d="M775.3,372.8c6.6,0,11.9-5.3,11.9-11.9c0-6.6-5.3-11.9-11.9-11.9c-6.6,0-11.9,5.3-11.9,11.9
		C763.4,367.5,768.7,372.8,775.3,372.8"/>
	
		<ellipse transform="matrix(0.982 -0.1891 0.1891 0.982 -54.2669 153.1204)" class="st3" cx="775.3" cy="360.9" rx="11.9" ry="11.9"/>
	<path class="st2" d="M1032.7,322.8c6.6,0,11.9-5.3,11.9-11.9c0-6.6-5.3-11.9-11.9-11.9c-6.6,0-11.9,5.3-11.9,11.9
		C1020.9,317.4,1026.2,322.8,1032.7,322.8"/>
	
		<ellipse transform="matrix(0.982 -0.1891 0.1891 0.982 -40.1583 200.9085)" class="st3" cx="1032.7" cy="310.9" rx="11.9" ry="11.9"/>
	<path class="st2" d="M1323,34.7c6.6,0,11.9-5.3,11.9-11.9c0-6.6-5.3-11.9-11.9-11.9c-6.6,0-11.9,5.3-11.9,11.9
		C1311.1,29.4,1316.5,34.7,1323,34.7"/>
	
		<ellipse transform="matrix(0.8507 -0.5257 0.5257 0.8507 185.5615 698.9596)" class="st3" cx="1323" cy="22.9" rx="11.9" ry="11.9"/>
	<path class="st2" d="M663.8,538.4c6.6,0,11.9-5.3,11.9-11.9c0-6.6-5.3-11.9-11.9-11.9c-6.6,0-11.9,5.3-11.9,11.9
		C651.9,533.1,657.3,538.4,663.8,538.4"/>
	
		<ellipse transform="matrix(0.9732 -0.2298 0.2298 0.9732 -103.222 166.5988)" class="st3" cx="663.8" cy="526.6" rx="11.9" ry="11.9"/>
	<path class="st2" d="M468.2,564.4c6.6,0,11.9-5.3,11.9-11.9c0-6.6-5.3-11.9-11.9-11.9c-6.6,0-11.9,5.3-11.9,11.9
		C456.4,559.1,461.7,564.4,468.2,564.4"/>
	
		<ellipse transform="matrix(0.9239 -0.3827 0.3827 0.9239 -175.791 221.2428)" class="st3" cx="468.2" cy="552.5" rx="11.9" ry="11.9"/>
	<path class="st2" d="M355.9,627.2c6.6,0,11.9-5.3,11.9-11.9c0-6.6-5.3-11.9-11.9-11.9s-11.9,5.3-11.9,11.9
		C344,621.9,349.3,627.2,355.9,627.2"/>
	
		<ellipse transform="matrix(0.9665 -0.2567 0.2567 0.9665 -146.0139 111.9585)" class="st3" cx="355.9" cy="615.3" rx="11.9" ry="11.9"/>
	<line class="st4" x1="7" y1="711" x2="551.1" y2="619"/>
</g>
<line class="st5" x1="550.1" y1="617.9" x2="762.6" y2="535"/>
<line class="st5" x1="767.2" y1="535" x2="980.4" y2="512.8"/>
<line class="st5" x1="980.1" y1="512.6" x2="1132.8" y2="417.6"/>
<g>
	<defs>
		<rect id="SVGID_5_" x="5.9" y="9.9" width="1424.9" height="704"/>
	</defs>
	<clipPath id="SVGID_6_">
		<use xlink:href="#SVGID_5_"  style="overflow:visible;"/>
	</clipPath>
	<line class="st6" x1="1138.6" y1="417.6" x2="1422.9" y2="313.7"/>
	<path class="st7" d="M762.9,546.8c6.1,0,11.1-5,11.1-11.1c0-6.1-5-11.1-11.1-11.1c-6.1,0-11.1,5-11.1,11.1
		C751.8,541.9,756.8,546.8,762.9,546.8"/>
	
		<ellipse transform="matrix(0.6154 -0.7882 0.7882 0.6154 -128.8789 807.3506)" class="st8" cx="762.9" cy="535.7" rx="11.1" ry="11.1"/>
	<path class="st7" d="M979.7,523c6.1,0,11.1-5,11.1-11.1c0-6.1-5-11.1-11.1-11.1s-11.1,5-11.1,11.1C968.6,518.1,973.5,523,979.7,523
		"/>
	
		<ellipse transform="matrix(0.6154 -0.7882 0.7882 0.6154 -26.7528 969.0536)" class="st8" cx="979.7" cy="511.9" rx="11.1" ry="11.1"/>
	<path class="st7" d="M1133.3,427.9c6.1,0,11.1-5,11.1-11.1c0-6.1-5-11.1-11.1-11.1c-6.1,0-11.1,5-11.1,11.1
		C1122.2,422.9,1127.2,427.9,1133.3,427.9"/>
	
		<ellipse transform="matrix(0.9239 -0.3827 0.3827 0.9239 -73.2475 465.4265)" class="st8" cx="1133.3" cy="416.8" rx="11.1" ry="11.1"/>
	<path class="st7" d="M1418.8,326.8c6.1,0,11.1-5,11.1-11.1c0-6.1-5-11.1-11.1-11.1c-6.1,0-11.1,5-11.1,11.1
		C1407.7,321.8,1412.7,326.8,1418.8,326.8"/>
	
		<ellipse transform="matrix(0.9239 -0.3827 0.3827 0.9239 -12.8219 566.9772)" class="st8" cx="1418.8" cy="315.7" rx="11.1" ry="11.1"/>
	<path class="st7" d="M555.7,630.7c6.1,0,11.1-5,11.1-11.1c0-6.1-5-11.1-11.1-11.1s-11.1,5-11.1,11.1
		C544.6,625.8,549.6,630.7,555.7,630.7"/>
	
		<ellipse transform="matrix(0.6618 -0.7497 0.7497 0.6618 -276.6284 626.1504)" class="st8" cx="555.7" cy="619.7" rx="11.1" ry="11.1"/>
</g>
</svg>
