<?xml version="1.0" encoding="utf-8"?>
<!-- Generator: Adobe Illustrator 22.1.0, SVG Export Plug-In . SVG Version: 6.00 Build 0)  -->
<svg version="1.1" id="Layer_1" xmlns="http://www.w3.org/2000/svg" xmlns:xlink="http://www.w3.org/1999/xlink" x="0px" y="0px"
	 viewBox="0 0 139 114" style="enable-background:new 0 0 139 114;" xml:space="preserve">
<g>
	<path d="M13.5,92.2C9,85,6.7,76.2,6.7,65.8c0-13.3,3.4-25.3,10.2-36S34,10.6,47.9,4.2l3.6,7.2c-8.3,3.5-15.4,8.9-21.4,16.4
		s-9,15.1-9,22.8c0,3.2,0.4,6,1.2,8.4c4.3-3.5,9.2-5.2,14.8-5.2c7.2,0,13.3,2.3,18.2,7c4.9,4.7,7.4,10.9,7.4,18.6
		c0,7.2-2.5,13.3-7.4,18.2s-11,7.4-18.2,7.4C26.7,105,18.8,100.7,13.5,92.2z M81.5,92.2c-4.5-7.2-6.8-16-6.8-26.4
		c0-13.3,3.4-25.3,10.2-36c6.8-10.7,17.1-19.2,31-25.6l3.6,7.2c-8.3,3.5-15.4,8.9-21.4,16.4s-9,15.1-9,22.8c0,3.2,0.4,6,1.2,8.4
		c4.3-3.5,9.2-5.2,14.8-5.2c7.2,0,13.3,2.3,18.2,7s7.4,10.9,7.4,18.6c0,7.2-2.5,13.3-7.4,18.2s-11,7.4-18.2,7.4
		C94.7,105,86.8,100.7,81.5,92.2z"/>
</g>
</svg>
