<?xml version="1.0" encoding="utf-8"?>
<!-- Generator: Adobe Illustrator 22.1.0, SVG Export Plug-In . SVG Version: 6.00 Build 0)  -->
<svg version="1.1" id="Layer_1" xmlns="http://www.w3.org/2000/svg" xmlns:xlink="http://www.w3.org/1999/xlink" x="0px" y="0px"
	 viewBox="0 0 138 109" style="enable-background:new 0 0 138 109;" xml:space="preserve">
<g>
	<path d="M53.9,17c4.5,7.2,6.8,16,6.8,26.4c0,13.3-3.4,25.3-10.2,36c-6.8,10.7-17.1,19.2-31,25.6l-3.6-7.2
		c8.3-3.5,15.4-8.9,21.4-16.4c6-7.5,9-15.1,9-22.8c0-3.2-0.4-6-1.2-8.4c-4.3,3.5-9.2,5.2-14.8,5.2c-7.2,0-13.3-2.3-18.2-7
		c-4.9-4.7-7.4-10.9-7.4-18.6c0-7.2,2.5-13.3,7.4-18.2c4.9-4.9,11-7.4,18.2-7.4C40.7,4.2,48.6,8.5,53.9,17z M121.9,17
		c4.5,7.2,6.8,16,6.8,26.4c0,13.3-3.4,25.3-10.2,36c-6.8,10.7-17.1,19.2-31,25.6l-3.6-7.2c8.3-3.5,15.4-8.9,21.4-16.4
		c6-7.5,9-15.1,9-22.8c0-3.2-0.4-6-1.2-8.4c-4.3,3.5-9.2,5.2-14.8,5.2c-7.2,0-13.3-2.3-18.2-7c-4.9-4.7-7.4-10.9-7.4-18.6
		c0-7.2,2.5-13.3,7.4-18.2c4.9-4.9,11-7.4,18.2-7.4C108.7,4.2,116.6,8.5,121.9,17z"/>
</g>
</svg>
