<?xml version="1.0" encoding="utf-8"?>
<!-- Generator: Adobe Illustrator 22.1.0, SVG Export Plug-In . SVG Version: 6.00 Build 0)  -->
<svg version="1.1" id="Layer_1" xmlns="http://www.w3.org/2000/svg" xmlns:xlink="http://www.w3.org/1999/xlink" x="0px" y="0px"
	 viewBox="0 0 32 31" style="enable-background:new 0 0 32 31;" xml:space="preserve">
<style type="text/css">
	.st0{fill:#2CAAE2;}
</style>
<g>
	<path class="st0" d="M17.4,18c-0.7,0-2.3-0.7-2.3-2.8c0-2.9,3.6-5.8,6.4-5.8c3.9,0,4.8,4.5,7.1,4.5c0.8,0,1.2-0.7,1.2-1.4
		c0-0.7-1-1.2-1-2.2c0-0.6,0.6-1.1,1.2-1.1c1,0,1.5,1,1.5,1.9c0,2.3-2.7,4.5-4.9,4.5c-1.3,0-2.4-1.2-3.2-2c-0.1,2.5-0.4,5.2-1.8,7.7
		c-1.7,3-4.9,6.9-11.6,6.9C5,28.3,1,24.6,1,19c0-4.6,4.7-10.8,9.6-10.8c0.8,0,1.7,0.2,2.3,0.8c0.9-1.2,4.1-3.7,4.1-5.3
		c0-0.5-0.3-1.3-0.3-1.7c0-0.8,0.7-1.3,1.5-1.3c0.8,0,1.3,0.6,1.3,1.6c0,1.5-2.3,3.8-3.3,4.8l-7.5,7.2l-1.4,1.4l-1.7,2.1
		c-0.8,0.9-1.3,1.7-1.3,2.9c0,1,0.7,1.9,1.3,2.6c1.2,1.4,3.5,2.2,5.4,2.2c4,0,7.3-2.2,9-4.1c2.1-2.3,2.6-5.5,2.8-8.5
		c-0.2-0.8-2.2-1.5-3.2-1.5c-1.3,0-2.5,1-2.5,2.3c0,2.5,2.4,0.9,2.4,2.9C19.2,17.7,18.2,18,17.4,18z M3.2,17.5c0,0.5,0,1,0.1,1.5
		c1-1.4,2-2.6,3.1-3.7l3.4-3.6c0.1-0.1,0.2-0.3,0.2-0.4c0-0.6-0.8-1.1-1.6-1.1C5.4,10.2,3.2,14.2,3.2,17.5z"/>
</g>
<rect x="28.6" y="31.4" style="fill:none;" width="6.4" height="7.6"/>
</svg>
