<svg xmlns="http://www.w3.org/2000/svg" viewBox="0 0 124 100.8"><defs><style>.cls-1{fill:#2caae2;}</style></defs><title>Quote_C_RAsset 1</title><g id="Layer_2" data-name="Layer 2"><g id="Layer_1-2" data-name="Layer 1"><path class="cls-1" d="M49.2,12.8Q56,23.6,56,39.2a65.52,65.52,0,0,1-10.2,36q-10.2,16-31,25.6l-3.6-7.2A54,54,0,0,0,32.6,77.2q9-11.19,9-22.8A26.59,26.59,0,0,0,40.4,46a22.78,22.78,0,0,1-14.8,5.2,25.46,25.46,0,0,1-18.2-7Q0,37.21,0,25.6A24.72,24.72,0,0,1,7.4,7.4,24.75,24.75,0,0,1,25.6,0Q41.2,0,49.2,12.8Zm68,0Q124,23.6,124,39.2a65.52,65.52,0,0,1-10.2,36q-10.2,16-31,25.6l-3.6-7.2a54,54,0,0,0,21.4-16.4q9-11.19,9-22.8a26.59,26.59,0,0,0-1.2-8.4,22.78,22.78,0,0,1-14.8,5.2,25.46,25.46,0,0,1-18.2-7Q68,37.21,68,25.6A24.72,24.72,0,0,1,75.4,7.4,24.75,24.75,0,0,1,93.6,0Q109.2,0,117.2,12.8Z"/></g></g></svg>