<svg xmlns="http://www.w3.org/2000/svg" viewBox="0 0 124 100.8"><defs><style>.cls-1{fill:#2caae2;}</style></defs><title>Quote_C_LAsset 1</title><g id="Layer_2" data-name="Layer 2"><g id="Layer_1-2" data-name="Layer 1"><path class="cls-1" d="M6.8,88Q0,77.2,0,61.6a65.56,65.56,0,0,1,10.2-36q10.2-16,31-25.6l3.6,7.2A54.12,54.12,0,0,0,23.4,23.6q-9,11.2-9,22.8a26.59,26.59,0,0,0,1.2,8.4,22.81,22.81,0,0,1,14.8-5.2,25.52,25.52,0,0,1,18.2,7q7.4,7,7.4,18.6a25.27,25.27,0,0,1-25.6,25.6Q14.8,100.8,6.8,88Zm68,0Q68,77.2,68,61.6a65.56,65.56,0,0,1,10.2-36q10.2-16,31-25.6l3.6,7.2A54.12,54.12,0,0,0,91.4,23.6q-9,11.2-9,22.8a26.59,26.59,0,0,0,1.2,8.4,22.81,22.81,0,0,1,14.8-5.2,25.52,25.52,0,0,1,18.2,7q7.4,7,7.4,18.6a25.27,25.27,0,0,1-25.6,25.6Q82.8,100.8,74.8,88Z"/></g></g></svg>